<?xml version="1.0" encoding="UTF-8" standalone="no"?>
<!-- Created with Inkscape (http://www.inkscape.org/) -->

<svg
   xmlns:dc="http://purl.org/dc/elements/1.1/"
   xmlns:cc="http://creativecommons.org/ns#"
   xmlns:rdf="http://www.w3.org/1999/02/22-rdf-syntax-ns#"
   xmlns:svg="http://www.w3.org/2000/svg"
   xmlns="http://www.w3.org/2000/svg"
   xmlns:sodipodi="http://sodipodi.sourceforge.net/DTD/sodipodi-0.dtd"
   xmlns:inkscape="http://www.inkscape.org/namespaces/inkscape"
   id="svg2"
   version="1.1"
   inkscape:version="0.48.4 r9939"
   width="1052.4"
   height="744"
   xml:space="preserve"
   sodipodi:docname="Main logo 1.ai"><metadata
     id="metadata8"><rdf:RDF><cc:Work
         rdf:about=""><dc:format>image/svg+xml</dc:format><dc:type
           rdf:resource="http://purl.org/dc/dcmitype/StillImage" /><dc:title></dc:title></cc:Work></rdf:RDF></metadata><defs
     id="defs6"><clipPath
       clipPathUnits="userSpaceOnUse"
       id="clipPath16"><path
         d="m 0,595.2 841.92,0 L 841.92,0 0,0 0,595.2 z"
         id="path18" /></clipPath></defs><sodipodi:namedview
     pagecolor="#ffffff"
     bordercolor="#666666"
     borderopacity="1"
     objecttolerance="10"
     gridtolerance="10"
     guidetolerance="10"
     inkscape:pageopacity="0"
     inkscape:pageshadow="2"
     inkscape:window-width="1215"
     inkscape:window-height="776"
     id="namedview4"
     showgrid="false"
     inkscape:zoom="7.177514"
     inkscape:cx="687.81586"
     inkscape:cy="483.4592"
     inkscape:window-x="65"
     inkscape:window-y="24"
     inkscape:window-maximized="1"
     inkscape:current-layer="g10" /><g
     id="g10"
     inkscape:groupmode="layer"
     inkscape:label="Main logo 1"
     transform="matrix(1.25,0,0,-1.25,0,744)"><g
       id="g12"><g
         id="g14"
         clip-path="url(#clipPath16)"><g
           id="g20"
           transform="translate(112.6226,252.46)"><path
             d="m 0,0 -28.191,0 c -1.918,0 -3.392,-0.092 -4.42,-0.273 -1.034,-0.182 -1.936,-0.926 -2.714,-2.232 0.245,-1.648 0.9,-2.575 1.965,-2.777 1.069,-0.207 2.716,-0.309 4.947,-0.309 l 13.788,0 c 5.531,-0.315 9.399,-1.913 11.604,-4.794 2.206,-2.882 3.056,-6.898 2.547,-12.053 -0.824,-5.157 -2.643,-8.961 -5.456,-11.419 -2.815,-2.457 -7.456,-3.734 -13.933,-3.831 l -30.775,0 1.31,13.036 29.246,0 c 2.523,0 4.443,0.089 5.768,0.27 1.321,0.182 2.223,1.154 2.709,2.924 -0.17,1.402 -0.844,2.245 -2.02,2.523 -1.175,0.278 -3.145,0.417 -5.91,0.417 l -13.316,0 c -5.866,0 -10.022,1.428 -12.458,4.286 -2.436,2.855 -3.402,6.813 -2.891,11.871 0.945,5.301 2.86,9.15 5.746,11.544 2.886,2.398 7.459,3.741 13.716,4.031 l 30.048,0 L 0,0 z m 54.026,-2.905 -3.492,-34.821 -13.57,0 3.421,31.916 c 0.608,3.291 -0.617,4.828 -3.675,4.611 l -18.843,0 -3.638,-36.562 -14.078,0 5.131,51.083 34.594,0 c 9.992,0.22 14.708,-5.19 14.15,-16.227 m 56.502,-8.46 c -0.776,-17.669 -6.378,-26.613 -16.805,-26.829 l -24.082,0 c -10.72,-0.05 -15.182,8.554 -13.387,25.813 1.673,17.45 8.197,26.224 19.571,26.32 l 19.752,-0.035 c 11.86,0.217 16.842,-8.206 14.951,-25.269 m -15.387,9.803 c -1.117,1.5 -2.862,2.358 -5.239,2.577 l -10.84,0 C 75.931,0.772 73.714,-0.74 72.404,-3.522 71.53,-4.83 70.847,-7.754 70.35,-12.291 c -0.497,-4.54 -0.516,-7.28 -0.054,-8.225 0.702,-2.299 2.169,-3.654 4.401,-4.066 l 14.078,0.038 c 2.375,0.24 4.05,1.316 5.018,3.23 1.165,1.357 1.97,4.629 2.422,9.822 0.448,5.192 0.09,8.502 -1.074,9.93 m 77.927,-36.489 -45.761,0.109 c -10.115,-0.29 -14.902,5.107 -14.369,16.192 l 3.526,34.855 12.951,0.036 -3.091,-30.931 c -0.728,-3.826 0.386,-5.689 3.345,-5.593 l 6.84,0.038 3.71,36.45 12.878,0 -3.638,-36.561 11.059,0 3.637,36.597 14.042,0 -5.129,-51.192 z M 248.676,0.834 217.755,0.796 c -2.62,0.099 -4.187,-0.556 -4.693,-1.96 l -1.237,-4.357 36.267,-0.037 -1.308,-12.199 -35.977,0.147 0.035,-2.868 c 0.097,-2.419 0.969,-3.727 2.618,-3.922 l 32.705,0.038 -1.31,-13.18 -35.867,0 c -10.283,0.604 -14.63,9.07 -13.042,25.395 1.588,16.326 7.949,24.767 19.081,25.324 l 34.884,0 -1.235,-12.343 z m 37.982,-34.058 c -2.059,-3.387 -5.249,-5.081 -9.565,-5.081 -4.292,0 -7.155,1.694 -8.585,5.081 l -18.552,46.438 17.752,0 11.788,-29.842 16.986,29.842 17.024,0 -26.848,-46.438 z m 80.765,21.859 c -0.774,-17.669 -6.38,-26.613 -16.804,-26.829 l -24.082,0 c -10.717,-0.05 -15.181,8.554 -13.389,25.813 1.678,17.45 8.198,26.224 19.573,26.32 l 19.752,-0.035 c 11.86,0.217 16.845,-8.206 14.95,-25.269 m -15.385,9.803 c -1.115,1.5 -2.863,2.358 -5.238,2.577 l -10.842,0 C 332.83,0.772 330.61,-0.74 329.3,-3.522 c -0.872,-1.308 -1.554,-4.232 -2.054,-8.769 -0.495,-4.54 -0.514,-7.28 -0.054,-8.225 0.702,-2.299 2.17,-3.654 4.403,-4.066 l 14.076,0.038 c 2.377,0.24 4.05,1.316 5.021,3.23 1.164,1.357 1.97,4.629 2.42,9.822 0.445,5.192 0.089,8.502 -1.074,9.93 m 38.129,-21.712 30.958,-0.036 -1.345,-14.305 -35.069,0 c -11.082,0.556 -15.959,6.91 -14.623,19.062 l 3.235,31.875 15.353,0 -3.201,-31.55 c -0.023,-3.048 1.54,-4.731 4.692,-5.046 m 82.658,-14.195 -34.375,0 c -9.921,-0.219 -14.602,5.155 -14.043,16.119 l 3.456,34.602 13.494,0 -3.418,-31.696 c -0.582,-3.268 0.643,-4.792 3.673,-4.576 l 18.698,0 3.638,36.272 13.97,0.035 -5.093,-50.756 z m 26.2,36.451 -1.783,-17.21 c -0.026,-3.048 1.538,-4.731 4.69,-5.046 l 30.959,-0.036 -1.345,-14.305 -35.07,0 c -11.082,0.556 -15.956,6.91 -14.621,19.062 l 1.819,17.644 -4.184,-0.073 1.456,14.304 45.578,0 -1.419,-14.376 -26.08,0.036 z m 50.572,-36.597 -15.207,0 5.383,50.829 14.88,0 -5.056,-50.829 z m 60.355,26.25 c -0.776,-17.669 -6.376,-26.613 -16.808,-26.829 l -24.08,0 c -10.719,-0.05 -15.182,8.554 -13.386,25.813 1.673,17.45 8.197,26.224 19.571,26.32 L 595,13.904 c 11.86,0.217 16.845,-8.206 14.952,-25.269 m -15.387,9.803 c -1.114,1.5 -2.862,2.358 -5.237,2.577 l -10.842,0 c -3.129,-0.243 -5.349,-1.755 -6.655,-4.537 -0.875,-1.308 -1.561,-4.232 -2.058,-8.769 -0.497,-4.54 -0.513,-7.28 -0.052,-8.225 0.702,-2.299 2.168,-3.654 4.402,-4.066 l 14.076,0.038 c 2.377,0.24 4.05,1.316 5.02,3.23 1.164,1.357 1.97,4.629 2.417,9.822 0.45,5.192 0.095,8.502 -1.071,9.93 m 69.709,-1.343 -3.496,-34.821 -13.566,0 3.418,31.916 c 0.606,3.291 -0.619,4.828 -3.672,4.611 l -18.847,0 -3.636,-36.562 -14.079,0 5.129,51.083 34.595,0 c 9.994,0.22 14.71,-5.19 14.154,-16.227"
             style="fill:#231f20;fill-opacity:1;fill-rule:nonzero;stroke:none"
             id="path22" /></g><g
           id="g24"
           transform="translate(575.9912,295.4062)"><path
             d="m 0,0 -2.175,-21.541 -8.42,0 0.973,9.58 -14.086,0.065 -0.951,-9.6 -8.741,0 2.153,21.43 c 0.997,6.443 4.915,9.81 11.752,10.094 L -8.762,10.005 C -2.542,9.585 0.379,6.252 0,0 m -10.642,2.607 -8.514,-0.021 c -2.262,-0.061 -3.378,-1.17 -3.35,-3.328 l -0.363,-3.348 14.062,0 0.295,2.629 c 0.452,2.429 -0.257,3.786 -2.13,4.068 m 44.41,-2.742 -2.175,-21.563 -8.447,0 2.13,19.763 c 0.377,2.04 -0.386,2.992 -2.29,2.858 l -11.727,0 -2.264,-22.643 -8.762,0 3.192,31.636 21.533,0 c 6.22,0.136 9.155,-3.216 8.81,-10.051 M 67.521,-5.959 C 66.486,-16.032 62.73,-21.263 56.257,-21.654 L 34.021,-21.63 37.188,9.76 58.769,9.736 c 6.869,-0.391 9.786,-5.621 8.752,-15.695 m -8.414,6.34 C 58.624,1.446 57.658,2.009 56.21,2.068 l -11.662,0 -1.56,-15.695 12.383,-0.021 c 1.315,0.178 2.257,0.89 2.832,2.136 0.739,1.169 1.248,3.014 1.526,5.53 0.281,2.518 0.076,4.641 -0.622,6.363 m 44.046,-5.756 c -0.485,-10.942 -3.971,-16.481 -10.46,-16.615 l -14.991,0 c -6.674,-0.031 -9.449,5.298 -8.332,15.986 1.041,10.807 5.103,16.242 12.182,16.303 l 12.296,-0.023 c 7.381,0.134 10.483,-5.082 9.305,-15.651 m -9.579,6.072 c -0.692,0.93 -1.781,1.463 -3.261,1.597 l -6.747,0 C 81.62,2.144 80.24,1.208 79.425,-0.517 c -0.547,-0.81 -0.971,-2.62 -1.281,-5.43 -0.309,-2.811 -0.321,-4.509 -0.034,-5.094 0.439,-1.422 1.35,-2.264 2.741,-2.518 l 8.76,0.024 c 1.48,0.148 2.522,0.817 3.127,2 0.723,0.839 1.228,2.867 1.505,6.083 0.278,3.216 0.057,5.265 -0.669,6.149 m 44.57,-1.506 c -0.092,-4.421 -1.859,-7.922 -5.301,-10.5 l 4.438,-10.366 -10.573,0 -4.302,9.916 -8.401,0 -0.976,-9.805 -9.508,-0.022 3.19,31.481 21.967,0 c 6.641,-1.094 9.796,-4.663 9.466,-10.704 m -10.849,2.834 -11.749,0 -0.547,-5.465 11.662,-0.024 c 1.781,0.03 2.804,0.882 3.069,2.554 0.262,1.67 -0.548,2.648 -2.435,2.935 m 45.971,-2.834 c -0.09,-4.421 -1.857,-7.922 -5.299,-10.5 l 4.436,-10.366 -10.573,0 -4.302,9.916 -8.401,0 -0.973,-9.805 -9.51,-0.022 3.194,31.481 21.962,0 c 6.643,-1.094 9.798,-4.663 9.466,-10.704 m -10.847,2.834 -11.751,0 -0.542,-5.465 11.659,-0.024 c 1.781,0.03 2.804,0.882 3.07,2.554 0.264,1.67 -0.546,2.648 -2.436,2.935 M 206.941,0 l -2.174,-21.541 -8.423,0 0.973,9.58 -14.084,0.065 -0.951,-9.6 -8.738,0 2.148,21.43 c 0.999,6.443 4.914,9.81 11.754,10.094 l 10.731,-0.023 C 204.396,9.585 207.318,6.252 206.941,0 m -10.644,2.607 -8.514,-0.021 c -2.262,-0.061 -3.379,-1.17 -3.35,-3.328 l -0.363,-3.348 14.062,0 0.295,2.629 c 0.452,2.429 -0.257,3.786 -2.13,4.068"
             style="fill:#469ddc;fill-opacity:1;fill-rule:nonzero;stroke:none"
             id="path26" /></g><g
           id="g28"
           transform="translate(230.9741,328.3105)"><path
             d="M 0,0 -2.219,3.475 60.361,43.437 62.58,39.96 0,0 z"
             style="fill:#231f20;fill-opacity:1;fill-rule:nonzero;stroke:none"
             id="path30" /></g><g
           id="g32"
           transform="translate(580.3613,391.793)"><path
             d="M 0,0 -2.854,2.978 51.562,55.118 54.417,52.142 0,0 z"
             style="fill:#231f20;fill-opacity:1;fill-rule:nonzero;stroke:none"
             id="path34" /></g><g
           id="g36"
           transform="translate(557.1416,386.0811)"><path
             d="m 0,0 -47.64,17.859 1.448,3.862 L 1.448,3.86 0,0 z"
             style="fill:#231f20;fill-opacity:1;fill-rule:nonzero;stroke:none"
             id="path38" /></g><g
           id="g40"
           transform="translate(399.8203,346.1543)"><path
             d="m 0,0 -2.2,3.487 88.542,55.87 2.2,-3.487 L 0,0 z"
             style="fill:#231f20;fill-opacity:1;fill-rule:nonzero;stroke:none"
             id="path42" /></g><g
           id="g44"
           transform="translate(375.043,342.5664)"><path
             d="m 0,0 -61.192,26.771 1.653,3.777 L 1.652,3.779 0,0 z"
             style="fill:#231f20;fill-opacity:1;fill-rule:nonzero;stroke:none"
             id="path46" /></g><g
           id="g48"
           transform="translate(642.376,472.9497)"><path
             d="m 0,0 c -10.411,0 -18.878,-8.468 -18.878,-18.878 0,-10.41 8.467,-18.879 18.878,-18.879 10.408,0 18.878,8.469 18.878,18.879 C 18.878,-8.468 10.408,0 0,0 m 0,-38.272 c -10.693,0 -19.394,8.699 -19.394,19.394 0,10.694 8.701,19.394 19.394,19.394 10.693,0 19.392,-8.7 19.392,-19.394 0,-10.695 -8.699,-19.394 -19.392,-19.394"
             style="fill:#231f20;fill-opacity:1;fill-rule:nonzero;stroke:none"
             id="path50" /></g><g
           id="g52"
           transform="translate(654.8887,454.0718)"><path
             d="m 0,0 c 0,-6.91 -5.607,-12.507 -12.513,-12.507 -6.912,0 -12.509,5.597 -12.509,12.507 0,6.908 5.597,12.509 12.509,12.509 C -5.607,12.509 0,6.908 0,0"
             style="fill:#469ddc;fill-opacity:1;fill-rule:nonzero;stroke:none"
             id="path54" /></g><g
           id="g56"
           transform="translate(642.376,464.5625)"><path
             d="m 0,0 c -5.784,0 -10.491,-4.706 -10.491,-10.491 0,-5.782 4.707,-10.488 10.491,-10.488 5.784,0 10.493,4.706 10.493,10.488 C 10.493,-4.706 5.784,0 0,0 m 0,-25.016 c -8.013,0 -14.529,6.516 -14.529,14.525 0,8.012 6.516,14.528 14.529,14.528 8.013,0 14.529,-6.516 14.529,-14.528 C 14.529,-18.5 8.013,-25.016 0,-25.016"
             style="fill:#231f20;fill-opacity:1;fill-rule:nonzero;stroke:none"
             id="path58" /></g><g
           id="g60"
           transform="translate(569.8965,403.5103)"><path
             d="m 0,0 c -10.404,0 -18.866,-8.469 -18.866,-18.879 0,-10.411 8.462,-18.88 18.866,-18.88 10.415,0 18.89,8.469 18.89,18.88 C 18.89,-8.469 10.415,0 0,0 m 0,-38.274 c -10.687,0 -19.38,8.7 -19.38,19.395 0,10.693 8.693,19.394 19.38,19.394 10.7,0 19.403,-8.701 19.403,-19.394 C 19.403,-29.574 10.7,-38.274 0,-38.274"
             style="fill:#231f20;fill-opacity:1;fill-rule:nonzero;stroke:none"
             id="path62" /></g><g
           id="g64"
           transform="translate(569.8965,395.127)"><path
             d="m 0,0 c -5.784,0 -10.488,-4.708 -10.488,-10.496 0,-5.786 4.704,-10.494 10.488,-10.494 5.788,0 10.498,4.708 10.498,10.494 C 10.498,-4.708 5.788,0 0,0 m 0,-25.027 c -8.011,0 -14.526,6.519 -14.526,14.531 0,8.014 6.515,14.532 14.526,14.532 8.015,0 14.536,-6.518 14.536,-14.532 0,-8.012 -6.521,-14.531 -14.536,-14.531"
             style="fill:#231f20;fill-opacity:1;fill-rule:nonzero;stroke:none"
             id="path66" /></g><g
           id="g68"
           transform="translate(498.2998,428.5312)"><path
             d="m 0,0 c -10.408,0 -18.875,-8.469 -18.875,-18.879 0,-10.404 8.467,-18.867 18.875,-18.867 10.413,0 18.881,8.463 18.881,18.867 C 18.881,-8.469 10.413,0 0,0 m 0,-38.261 c -10.691,0 -19.392,8.695 -19.392,19.382 0,10.694 8.701,19.395 19.392,19.395 10.696,0 19.396,-8.701 19.396,-19.395 0,-10.687 -8.7,-19.382 -19.396,-19.382"
             style="fill:#231f20;fill-opacity:1;fill-rule:nonzero;stroke:none"
             id="path70" /></g><g
           id="g72"
           transform="translate(498.2998,420.1514)"><path
             d="m 0,0 c -5.783,0 -10.488,-4.709 -10.488,-10.499 0,-5.784 4.705,-10.49 10.488,-10.49 5.786,0 10.496,4.706 10.496,10.49 C 10.496,-4.709 5.786,0 0,0 m 0,-25.024 c -8.01,0 -14.526,6.515 -14.526,14.525 0,8.016 6.516,14.536 14.526,14.536 8.015,0 14.531,-6.52 14.531,-14.536 0,-8.01 -6.516,-14.525 -14.531,-14.525"
             style="fill:#231f20;fill-opacity:1;fill-rule:nonzero;stroke:none"
             id="path74" /></g><g
           id="g76"
           transform="translate(388.0054,360.3228)"><path
             d="m 0,0 c -10.408,0 -18.878,-8.464 -18.878,-18.866 0,-10.413 8.47,-18.883 18.878,-18.883 10.411,0 18.88,8.47 18.88,18.883 C 18.88,-8.464 10.411,0 0,0 m 0,-38.265 c -10.693,0 -19.394,8.703 -19.394,19.399 0,10.686 8.701,19.381 19.394,19.381 10.696,0 19.396,-8.695 19.396,-19.381 0,-10.696 -8.7,-19.399 -19.396,-19.399"
             style="fill:#231f20;fill-opacity:1;fill-rule:nonzero;stroke:none"
             id="path78" /></g><g
           id="g80"
           transform="translate(388.0054,351.9478)"><path
             d="m 0,0 c -5.786,0 -10.493,-4.708 -10.493,-10.491 0,-5.791 4.707,-10.5 10.493,-10.5 5.786,0 10.496,4.709 10.496,10.5 C 10.496,-4.708 5.786,0 0,0 m 0,-25.027 c -8.012,0 -14.531,6.521 -14.531,14.536 0,8.01 6.519,14.527 14.531,14.527 8.015,0 14.531,-6.517 14.531,-14.527 0,-8.015 -6.516,-14.536 -14.531,-14.536"
             style="fill:#231f20;fill-opacity:1;fill-rule:nonzero;stroke:none"
             id="path82" /></g><g
           id="g84"
           transform="translate(303.2417,395.1763)"><path
             d="m 0,0 c -10.411,0 -18.882,-8.467 -18.882,-18.875 0,-10.41 8.471,-18.878 18.882,-18.878 10.411,0 18.878,8.468 18.878,18.878 C 18.878,-8.467 10.411,0 0,0 m 0,-38.27 c -10.693,0 -19.396,8.701 -19.396,19.395 0,10.692 8.703,19.391 19.396,19.391 10.694,0 19.392,-8.699 19.392,-19.391 C 19.392,-29.569 10.694,-38.27 0,-38.27"
             style="fill:#231f20;fill-opacity:1;fill-rule:nonzero;stroke:none"
             id="path86" /></g><g
           id="g88"
           transform="translate(303.2417,386.7974)"><path
             d="m 0,0 c -5.784,0 -10.491,-4.708 -10.491,-10.497 0,-5.782 4.707,-10.488 10.491,-10.488 5.789,0 10.496,4.706 10.496,10.488 C 10.496,-4.708 5.789,0 0,0 m 0,-25.022 c -8.01,0 -14.526,6.517 -14.526,14.525 0,8.015 6.516,14.534 14.526,14.534 8.013,0 14.534,-6.519 14.534,-14.534 0,-8.008 -6.521,-14.525 -14.534,-14.525"
             style="fill:#231f20;fill-opacity:1;fill-rule:nonzero;stroke:none"
             id="path90" /></g><g
           id="g92"
           transform="translate(217.3501,343.5254)"><path
             d="m 0,0 c -10.409,0 -18.878,-8.467 -18.878,-18.874 0,-10.415 8.469,-18.887 18.878,-18.887 10.413,0 18.882,8.472 18.882,18.887 C 18.882,-8.467 10.413,0 0,0 m 0,-38.277 c -10.694,0 -19.392,8.703 -19.392,19.403 0,10.692 8.698,19.39 19.392,19.39 10.698,0 19.398,-8.698 19.398,-19.39 0,-10.7 -8.7,-19.403 -19.398,-19.403"
             style="fill:#231f20;fill-opacity:1;fill-rule:nonzero;stroke:none"
             id="path94" /></g><g
           id="g96"
           transform="translate(217.3501,335.1431)"><path
             d="m 0,0 c -5.786,0 -10.494,-4.708 -10.494,-10.491 0,-5.789 4.708,-10.496 10.494,-10.496 5.789,0 10.496,4.707 10.496,10.496 C 10.496,-4.708 5.789,0 0,0 m 0,-25.025 c -8.013,0 -14.529,6.519 -14.529,14.534 0,8.01 6.516,14.529 14.529,14.529 8.012,0 14.534,-6.519 14.534,-14.529 0,-8.015 -6.522,-14.534 -14.534,-14.534"
             style="fill:#231f20;fill-opacity:1;fill-rule:nonzero;stroke:none"
             id="path98" /></g></g></g></g></svg>